# xmcd
#
# Track frame offsets:
#	150
#	8279
#	23168
#	33676
#	42747
#	55781
#	63793
#	73980
#	82999
#	94821
#	103585
#	110965
#	119827
#	129447
#	136924
#	148145
#
# Disc length: 2060 seconds
#
# Revision: 0
# Processed by: cddbd v1.5.2PL0 Copyright (c) Steve Scherf et al.
# Submitted via: EasyCDDAExtractor 10.0.6.1
#
DISCID=e8080a10
DTITLE=Smoky Mountain Boys - No Strings
DYEAR=2007
DGENRE=Gospel
TTITLE0=My Rock
TTITLE1=There Is A Fountain
TTITLE2=I Am Bound For The Promiced Land
TTITLE3=Way Down Deep
TTITLE4=If We Never Meet Again
TTITLE5=Everybodys Gonna Have A Wonderful Time
TTITLE6=I Am Near The Gate
TTITLE7=He Made A Way For Me
TTITLE8=Nearing The Shore
TTITLE9=When I Cross To The Other Sied Of Jordan\\
TTITLE10=A Beautiful Life
TTITLE11=Just A Little Talk With Jesus
TTITLE12=No Strings
TTITLE13=Things I'm Hearing
TTITLE14=O Daniel Prayed
TTITLE15=I'll Live Again
EXTD=
EXTT0=
EXTT1=
EXTT2=
EXTT3=
EXTT4=
EXTT5=
EXTT6=
EXTT7=
EXTT8=
EXTT9=
EXTT10=
EXTT11=
EXTT12=
EXTT13=
EXTT14=
EXTT15=
PLAYORDER=
